<svg width="25" height="25" viewBox="0 0 25 25" fill="none" xmlns="http://www.w3.org/2000/svg">
<path fill-rule="evenodd" clip-rule="evenodd" d="M5.75272 11.3057C5.75272 8.01278 8.43064 5.33486 11.7236 5.33486C15.0165 5.33486 17.6944 8.01278 17.6944 11.3057C17.6944 14.5986 15.0165 17.2765 11.7236 17.2765C8.43064 17.2765 5.75272 14.5986 5.75272 11.3057M21.3834 19.5584L18.0049 16.1789C19.0528 14.8315 19.6847 13.1427 19.6847 11.3057C19.6847 6.91614 16.1131 3.34459 11.7236 3.34459C7.334 3.34459 3.76245 6.91614 3.76245 11.3057C3.76245 15.6953 7.334 19.2668 11.7236 19.2668C13.5606 19.2668 15.2493 18.6349 16.5968 17.587L19.9762 20.9655C20.1703 21.1596 20.4251 21.2571 20.6798 21.2571C20.9346 21.2571 21.1893 21.1596 21.3834 20.9655C21.7725 20.5764 21.7725 19.9475 21.3834 19.5584" fill="#686869" fill-opacity="0.6"/>
</svg>
